<svg fill="none" xmlns="http://www.w3.org/2000/svg" viewBox="0 0 25.43 15.7">
  <path fill="#f6f6f6" d="M14.15,3.36H10.79v4h3.35a1.9,1.9,0,0,0,1.8-2A1.9,1.9,0,0,0,14.15,3.36Z"></path><polygon fill="#82bf00" points="25.43 9.94 16.64 9.94 16.64 9.94 17.98 12.25 25.43 12.25 25.43 9.94"></polygon><rect fill="#004638" x="7.2" y="12.25" width="3.59" height="3.46"></rect><polygon fill="#82bf00" points="12.82 9.94 0 9.94 0 12.25 14.14 12.25 12.82 9.94"></polygon><path fill="#004638" d="M16.64,9.94a5.18,5.18,0,0,0,2.89-4.55A5.37,5.37,0,0,0,14.15,0H7.2V9.94h5.61l3.31,5.77H20L16.64,9.94h0M14.15,7.4H10.79v-4h3.35a1.9,1.9,0,0,1,1.8,2A1.9,1.9,0,0,1,14.15,7.4Z"></path>
</svg>